<svg id="Capa_1" data-name="Capa 1" xmlns="http://www.w3.org/2000/svg" viewBox="0 0 1242.33 379.66"><defs><style>.cls-1{fill:none;stroke:#5a4ffc;stroke-miterlimit:10;stroke-width:18px;}.cls-2{fill:#ff8100;}</style></defs><title>LOGOMOBBITOFICIAL</title><path d="M405.13,283.72A52.79,52.79,0,0,1,424.8,297q8.47,9,13,24t4.5,35.46V459.55H386V369.74q0-39.89-25.76-39.88-12.89,0-21.18,10.68T330.76,371v88.58H274.47V369.74q0-39.89-25.93-39.88a26.68,26.68,0,0,0-22,10.59Q218.19,351,218.19,371v88.58H161.73V282.75h56.46v19.94h.88a68.47,68.47,0,0,1,22.76-17.29,62.43,62.43,0,0,1,26.64-6q35.11,0,50.64,25.41H320q21.87-25.41,59.63-25.41A70.49,70.49,0,0,1,405.13,283.72Z" transform="translate(-61.67 -193.47)"/><path d="M521.43,456.28a87.49,87.49,0,0,1-30.26-18.88,84.86,84.86,0,0,1-19.41-29.11,101.51,101.51,0,0,1,0-73.93,84.86,84.86,0,0,1,19.41-29.11,88.58,88.58,0,0,1,30.26-19,106.82,106.82,0,0,1,38.82-6.88q27.71,0,49.4,11.55a83.44,83.44,0,0,1,33.79,32.56q12.09,21,12.09,47.82t-12.09,47.72a83.61,83.61,0,0,1-33.79,32.47q-21.71,11.55-49.4,11.56A108.08,108.08,0,0,1,521.43,456.28Zm66.08-55.22q11-11.74,11-29.73,0-18.36-10.85-29.91t-27.44-11.56q-16.93,0-27.7,11.65t-10.77,29.82q0,17.82,10.94,29.64t27.53,11.82A35.92,35.92,0,0,0,587.51,401.06Z" transform="translate(-61.67 -193.47)"/><path d="M819.54,286.19A77,77,0,0,1,845.22,305a87.47,87.47,0,0,1,16.94,29.2,109.33,109.33,0,0,1,6.17,37.15q0,40.76-23.38,66.16t-59.9,25.41q-32.82,0-50.46-22.41h-.89v19.06H680.07V193.47H736.7v108h.89Q757,279.4,787.7,279.4A75.86,75.86,0,0,1,819.54,286.19Zm-19,115.4Q811.16,390,811.16,371.5q0-18.71-10.76-30.35t-27.17-11.64q-16.93,0-27.88,11.82T734.41,371.5a47.13,47.13,0,0,0,3,17.12,38.74,38.74,0,0,0,8.2,13.14A36.72,36.72,0,0,0,758,410.14a39.46,39.46,0,0,0,15.44,3Q790,413.14,800.58,401.59Z" transform="translate(-61.67 -193.47)"/><path d="M1032.35,286.19A76.87,76.87,0,0,1,1058,305a87.13,87.13,0,0,1,16.94,29.2,109.09,109.09,0,0,1,6.18,37.15q0,40.76-23.38,66.16t-59.9,25.41q-32.82,0-50.47-22.41h-.88v19.06H892.87V193.47h56.64v108h.88q19.41-22.05,50.11-22.05A75.87,75.87,0,0,1,1032.35,286.19Zm-19,115.4Q1024,390,1024,371.5q0-18.71-10.76-30.35T986,329.51q-16.93,0-27.87,11.82T947.22,371.5a47.13,47.13,0,0,0,3,17.12,38.74,38.74,0,0,0,8.2,13.14,36.78,36.78,0,0,0,12.35,8.38,39.5,39.5,0,0,0,15.44,3Q1002.8,413.14,1013.38,401.59Z" transform="translate(-61.67 -193.47)"/><path d="M1109,252.49q-10.14-9.27-10.14-23.73a31.14,31.14,0,0,1,4.76-17,32.56,32.56,0,0,1,12.79-11.64,38,38,0,0,1,17.74-4.15q15,0,25.14,9.26t10.15,23.56q0,14.46-10.15,23.73t-25.14,9.26Q1119.12,261.75,1109,252.49Zm-3.08,30.26h56.28v176.8h-56.28Z" transform="translate(-61.67 -193.47)"/><path d="M1216.84,447.9q-14.11-15-14.12-43.93V328.8h-19.94V282.75h19.94V226.29l56.46-6v62.46h42.88V328.8h-42.88v64.58q0,9.53,2.91,14.82c2,3.53,5.44,5.3,10.5,5.3a38.11,38.11,0,0,0,17.47-4.42L1304,450.73a102.11,102.11,0,0,1-21.61,9.08q-10.86,3.09-27.79,3.09Q1230.95,462.9,1216.84,447.9Z" transform="translate(-61.67 -193.47)"/><polyline class="cls-1" points="9 3.02 9 357.96 380.45 357.96"/><path class="cls-2" d="M466.65,529.79a4.38,4.38,0,0,1,0,6.31,4.33,4.33,0,0,1-3.17,1.32,4.44,4.44,0,0,1-3.24-1.32,4.38,4.38,0,0,1,0-6.31,4.47,4.47,0,0,1,3.24-1.31A4.36,4.36,0,0,1,466.65,529.79Zm-.45,12.61,1.23,30.73h-7.62L461,542.4Z" transform="translate(-61.67 -193.47)"/><path class="cls-2" d="M519.46,515.53v42.63h-7.23V529.6h-.09L500.48,550h-4.75L484.07,529.6H484v28.56h-7.23V515.53H484l14.06,25.52h.12l14-25.52Z" transform="translate(-61.67 -193.47)"/><path class="cls-2" d="M555.23,528.89v29.27h-6.71v-3.81h-.08a11.69,11.69,0,0,1-4.08,3.18,11.54,11.54,0,0,1-5,1.1A13.82,13.82,0,0,1,535,558a9.36,9.36,0,0,1-3.42-2,8.66,8.66,0,0,1-2.27-3.7,17.19,17.19,0,0,1-.8-5.52V528.89h6.71v16a17,17,0,0,0,.34,3.66,5.52,5.52,0,0,0,1.07,2.34,3.93,3.93,0,0,0,1.79,1.25,8.09,8.09,0,0,0,2.6.37,6.66,6.66,0,0,0,2.85-.63,7.42,7.42,0,0,0,2.4-1.81,8.44,8.44,0,0,0,1.67-3,13.14,13.14,0,0,0,.61-4.14v-14Z" transform="translate(-61.67 -193.47)"/><path class="cls-2" d="M592.18,514v44.18h-6.42v-3.93h-.12q-3.33,4.39-9.52,4.4a15.71,15.71,0,0,1-4.58-.67,12.58,12.58,0,0,1-3.93-2,14.2,14.2,0,0,1-3-3.12,13.89,13.89,0,0,1-2-4.16,17.75,17.75,0,0,1-.69-5,16.85,16.85,0,0,1,1.09-6.1,14.48,14.48,0,0,1,3-4.83,13.49,13.49,0,0,1,4.49-3.13,13.64,13.64,0,0,1,5.59-1.15,11.46,11.46,0,0,1,9.26,4h.15V514Zm-8.91,36.09a8.64,8.64,0,0,0,2.46-6.38,9.29,9.29,0,0,0-2.39-6.54,8,8,0,0,0-6.13-2.6,8.44,8.44,0,0,0-3.3.64,8.11,8.11,0,0,0-2.68,1.8,8.21,8.21,0,0,0-1.8,2.9,10.68,10.68,0,0,0-.66,3.8,8.89,8.89,0,0,0,2.34,6.37,8,8,0,0,0,6.07,2.48A8.28,8.28,0,0,0,583.27,550.07Z" transform="translate(-61.67 -193.47)"/><path class="cls-2" d="M629.12,528.89v29.27H622.7v-3.93h-.08a11.06,11.06,0,0,1-9.32,4.4,15.83,15.83,0,0,1-4.59-.67,12.63,12.63,0,0,1-3.92-2,14.2,14.2,0,0,1-3-3.12,13.89,13.89,0,0,1-2-4.16,17.75,17.75,0,0,1-.69-5,17.06,17.06,0,0,1,1.08-6.1,14.66,14.66,0,0,1,3-4.83,13.87,13.87,0,0,1,10.08-4.28,11.21,11.21,0,0,1,9,4h.12v-3.52Zm-8.86,21.17a8.73,8.73,0,0,0,2.41-6.37,9.39,9.39,0,0,0-2.35-6.52,7.65,7.65,0,0,0-5.94-2.62,8.39,8.39,0,0,0-3.29.64,8.11,8.11,0,0,0-2.68,1.8,8.23,8.23,0,0,0-1.81,2.9,10.91,10.91,0,0,0-.65,3.8,8.89,8.89,0,0,0,2.34,6.37,8.46,8.46,0,0,0,12,0Z" transform="translate(-61.67 -193.47)"/><path class="cls-2" d="M654.31,528.48V536c-.76-.06-1.43-.08-2-.08A8.17,8.17,0,0,0,648,537a7,7,0,0,0-2.75,3,9.59,9.59,0,0,0-.92,4.29v13.89h-6.71V528.89h6.71v4.4h.08a12.09,12.09,0,0,1,4.09-3.59,10.61,10.61,0,0,1,5-1.25A7.31,7.31,0,0,1,654.31,528.48Z" transform="translate(-61.67 -193.47)"/><path class="cls-2" d="M662.62,556.17q-2.14-2.46-2.15-7.27V534.61h-3.58v-5.72h3.58v-9.72l6.71-.74v10.46h8.61v5.72h-8.61v13.68a5.41,5.41,0,0,0,.69,3.13,2.43,2.43,0,0,0,2.12.94,9.35,9.35,0,0,0,4.33-1.26l1.76,5.8a14.69,14.69,0,0,1-3.2,1.29,16.9,16.9,0,0,1-4.24.44A7.58,7.58,0,0,1,662.62,556.17Z" transform="translate(-61.67 -193.47)"/><path class="cls-2" d="M707,545.86H685.66a8.11,8.11,0,0,0,2.89,4.89,8.48,8.48,0,0,0,5.46,1.79,8.89,8.89,0,0,0,7.3-3.46l4.68,4a13.94,13.94,0,0,1-5.11,4,16.49,16.49,0,0,1-7.22,1.5,15.8,15.8,0,0,1-7.65-1.85,13.48,13.48,0,0,1-5.36-5.31,15.9,15.9,0,0,1-2-8,16.89,16.89,0,0,1,1.08-6.12,14.07,14.07,0,0,1,3-4.78,13.38,13.38,0,0,1,4.54-3.06,15.43,15.43,0,0,1,13.16.81,12.76,12.76,0,0,1,5,5.24A18.06,18.06,0,0,1,707,545.86Zm-18.49-9.78a7.62,7.62,0,0,0-2.72,4.36h14.65a9.24,9.24,0,0,0-1.36-3.1,6.59,6.59,0,0,0-2.41-2.05,7.4,7.4,0,0,0-3.35-.74A7.74,7.74,0,0,0,688.5,536.08Z" transform="translate(-61.67 -193.47)"/><path class="cls-2" d="M754.67,531.51q2.87,3.07,2.86,9.42v17.26h-6.71V542.66a15.88,15.88,0,0,0-.41-3.87,6,6,0,0,0-1.26-2.5,4.92,4.92,0,0,0-2-1.33,7.77,7.77,0,0,0-2.71-.41,8,8,0,0,0-3.1.58,6.65,6.65,0,0,0-2.41,1.7,7.65,7.65,0,0,0-1.53,2.81,12.3,12.3,0,0,0-.55,3.81v14.71h-6.71V528.89h6.71v4H737a12.27,12.27,0,0,1,4.4-3.31,12.92,12.92,0,0,1,5.42-1.15A10.27,10.27,0,0,1,754.67,531.51Z" transform="translate(-61.67 -193.47)"/><path class="cls-2" d="M792,528.89v29.27h-6.71v-3.81h-.09a11.61,11.61,0,0,1-9,4.28,13.82,13.82,0,0,1-4.44-.66,9.4,9.4,0,0,1-3.43-2,8.86,8.86,0,0,1-2.27-3.7,17.49,17.49,0,0,1-.79-5.52V528.89h6.71v16a16.38,16.38,0,0,0,.34,3.66,5.41,5.41,0,0,0,1.07,2.34,3.93,3.93,0,0,0,1.79,1.25,8.09,8.09,0,0,0,2.6.37,6.58,6.58,0,0,0,2.84-.63,7.46,7.46,0,0,0,2.41-1.81,8.44,8.44,0,0,0,1.67-3,13.14,13.14,0,0,0,.61-4.14v-14Z" transform="translate(-61.67 -193.47)"/><path class="cls-2" d="M824.92,531.51q2.87,3.07,2.86,9.42v17.26h-6.71V542.66a15.4,15.4,0,0,0-.41-3.87,5.72,5.72,0,0,0-1.26-2.5,4.79,4.79,0,0,0-2-1.33,7.77,7.77,0,0,0-2.71-.41,8,8,0,0,0-3.1.58,6.53,6.53,0,0,0-2.4,1.7,7.52,7.52,0,0,0-1.54,2.81,12.62,12.62,0,0,0-.54,3.81v14.71h-6.71V528.89h6.71v4h.08a12.36,12.36,0,0,1,4.4-3.31,13,13,0,0,1,5.42-1.15A10.25,10.25,0,0,1,824.92,531.51Z" transform="translate(-61.67 -193.47)"/><path class="cls-2" d="M841.55,556.75a13.45,13.45,0,0,1-5.32-5.31,17,17,0,0,1,0-15.74,13.65,13.65,0,0,1,5.37-5.34,15.94,15.94,0,0,1,7.84-1.91,17.37,17.37,0,0,1,6.86,1.41,13.94,13.94,0,0,1,5.45,4l-4.57,4a9.23,9.23,0,0,0-3.2-2.43,9.67,9.67,0,0,0-4.19-.88,9,9,0,0,0-4.54,1.12,7.89,7.89,0,0,0-3,3.17,10.66,10.66,0,0,0,0,9.39,7.8,7.8,0,0,0,3.08,3.18,9,9,0,0,0,4.52,1.13,10.46,10.46,0,0,0,1.86-.17,8.83,8.83,0,0,0,1.72-.45,10.65,10.65,0,0,0,1.49-.69,9.33,9.33,0,0,0,1.29-.86,9.13,9.13,0,0,0,1-1l4.63,4.1a14.71,14.71,0,0,1-5.31,3.72,18.17,18.17,0,0,1-7.34,1.44A15.66,15.66,0,0,1,841.55,556.75Z" transform="translate(-61.67 -193.47)"/><path class="cls-2" d="M896.16,528.89v29.27h-6.42v-3.93h-.08a11.06,11.06,0,0,1-9.32,4.4,15.83,15.83,0,0,1-4.59-.67,12.63,12.63,0,0,1-3.92-2,14.2,14.2,0,0,1-3-3.12,13.89,13.89,0,0,1-2-4.16,17.75,17.75,0,0,1-.69-5,17.06,17.06,0,0,1,1.08-6.1,14.66,14.66,0,0,1,3-4.83,13.87,13.87,0,0,1,10.08-4.28,11.21,11.21,0,0,1,9.05,4h.12v-3.52Zm-8.86,21.17a8.73,8.73,0,0,0,2.41-6.37,9.39,9.39,0,0,0-2.35-6.52,7.65,7.65,0,0,0-5.94-2.62,8.39,8.39,0,0,0-3.29.64,7.89,7.89,0,0,0-4.48,4.7,10.68,10.68,0,0,0-.66,3.8,8.89,8.89,0,0,0,2.34,6.37,8.46,8.46,0,0,0,12,0Z" transform="translate(-61.67 -193.47)"/><path class="cls-2" d="M921.79,534.61h-3.28v-5.72h3.28v-5.36c0-3.26.76-5.75,2.28-7.45a8.3,8.3,0,0,1,6.57-2.57,13.72,13.72,0,0,1,7.36,2l-1.5,5.69a12.47,12.47,0,0,0-4.89-1.5,2.65,2.65,0,0,0-2.74,1.95,7.81,7.81,0,0,0-.37,2.59v4.63h7.21v5.72H928.5v23.55h-6.71Z" transform="translate(-61.67 -193.47)"/><path class="cls-2" d="M967.18,528.89v29.27h-6.71v-3.81h-.09a11.61,11.61,0,0,1-9,4.28,13.82,13.82,0,0,1-4.44-.66,9.4,9.4,0,0,1-3.43-2,8.76,8.76,0,0,1-2.27-3.7,17.2,17.2,0,0,1-.79-5.52V528.89h6.71v16a17.07,17.07,0,0,0,.33,3.66,5.52,5.52,0,0,0,1.07,2.34,4,4,0,0,0,1.79,1.25,8.11,8.11,0,0,0,2.61.37,6.65,6.65,0,0,0,2.84-.63,7.32,7.32,0,0,0,2.4-1.81,8.44,8.44,0,0,0,1.67-3,13.13,13.13,0,0,0,.62-4.14v-14Z" transform="translate(-61.67 -193.47)"/><path class="cls-2" d="M1002.21,545.86H980.89a8.14,8.14,0,0,0,2.88,4.89,8.52,8.52,0,0,0,5.47,1.79,8.87,8.87,0,0,0,7.29-3.46l4.69,4a14,14,0,0,1-5.11,4,16.5,16.5,0,0,1-7.23,1.5,15.73,15.73,0,0,1-7.64-1.85,13.42,13.42,0,0,1-5.36-5.31,15.9,15.9,0,0,1-2-8,16.9,16.9,0,0,1,1.09-6.12,13.92,13.92,0,0,1,3-4.78,13.38,13.38,0,0,1,4.54-3.06,15.41,15.41,0,0,1,13.15.81,12.76,12.76,0,0,1,5,5.24,18.06,18.06,0,0,1,1.55,10.26Zm-18.48-9.78a7.58,7.58,0,0,0-2.73,4.36h14.65a8.86,8.86,0,0,0-1.36-3.1,6.64,6.64,0,0,0-2.4-2.05,7.48,7.48,0,0,0-3.36-.74A7.74,7.74,0,0,0,983.73,536.08Z" transform="translate(-61.67 -193.47)"/><path class="cls-2" d="M1028.1,556.17c-1.44-1.64-2.15-4.06-2.15-7.27V534.61h-3.58v-5.72H1026v-9.72l6.7-.74v10.46h8.62v5.72h-8.62v13.68a5.41,5.41,0,0,0,.69,3.13,2.46,2.46,0,0,0,2.13.94,9.35,9.35,0,0,0,4.33-1.26l1.76,5.8a14.57,14.57,0,0,1-3.21,1.29,16.76,16.76,0,0,1-4.23.44A7.57,7.57,0,0,1,1028.1,556.17Z" transform="translate(-61.67 -193.47)"/><path class="cls-2" d="M1074.26,528.89v29.27h-6.42v-3.93h-.09a11,11,0,0,1-9.31,4.4,15.78,15.78,0,0,1-4.59-.67,12.8,12.8,0,0,1-3.93-2,14.15,14.15,0,0,1-3-3.12,13.91,13.91,0,0,1-2-4.16,18.12,18.12,0,0,1-.68-5,17.06,17.06,0,0,1,1.08-6.1,14.5,14.5,0,0,1,3-4.83,13.45,13.45,0,0,1,4.48-3.13,13.66,13.66,0,0,1,5.6-1.15,11.22,11.22,0,0,1,9,4h.12v-3.52Zm-8.87,21.17a8.74,8.74,0,0,0,2.42-6.37,9.4,9.4,0,0,0-2.36-6.52,7.63,7.63,0,0,0-5.93-2.62,8.48,8.48,0,0,0-3.3.64,7.89,7.89,0,0,0-4.48,4.7,10.68,10.68,0,0,0-.66,3.8,8.85,8.85,0,0,0,2.35,6.37,8.45,8.45,0,0,0,12,0Z" transform="translate(-61.67 -193.47)"/><path class="cls-2" d="M1107.23,531.51q2.85,3.07,2.86,9.42v17.26h-6.71V542.66a15.88,15.88,0,0,0-.41-3.87,6,6,0,0,0-1.26-2.5,4.92,4.92,0,0,0-2-1.33,7.81,7.81,0,0,0-2.71-.41,8,8,0,0,0-3.11.58,6.7,6.7,0,0,0-2.4,1.7,7.67,7.67,0,0,0-1.54,2.81,12.62,12.62,0,0,0-.54,3.81v14.71h-6.71V528.89h6.71v4h.09a12.24,12.24,0,0,1,4.39-3.31,13,13,0,0,1,5.42-1.15A10.28,10.28,0,0,1,1107.23,531.51Z" transform="translate(-61.67 -193.47)"/><path class="cls-2" d="M1135.49,534.61h-3.28v-5.72h3.28v-5.36c0-3.26.75-5.75,2.27-7.45a8.3,8.3,0,0,1,6.57-2.57,13.72,13.72,0,0,1,7.36,2l-1.5,5.69a12.47,12.47,0,0,0-4.89-1.5,2.94,2.94,0,0,0-1.7.47,3,3,0,0,0-1,1.48,7.84,7.84,0,0,0-.36,2.59v4.63h7.2v5.72h-7.2v23.55h-6.71Z" transform="translate(-61.67 -193.47)"/><path class="cls-2" d="M1182.6,528.89v29.27h-6.42v-3.93h-.09a11,11,0,0,1-9.31,4.4,15.78,15.78,0,0,1-4.59-.67,12.8,12.8,0,0,1-3.93-2,14.15,14.15,0,0,1-3-3.12,13.91,13.91,0,0,1-2-4.16,18.12,18.12,0,0,1-.68-5,17.06,17.06,0,0,1,1.08-6.1,14.5,14.5,0,0,1,3-4.83,13.45,13.45,0,0,1,4.48-3.13,13.66,13.66,0,0,1,5.6-1.15,11.22,11.22,0,0,1,9,4h.12v-3.52Zm-8.87,21.17a8.74,8.74,0,0,0,2.42-6.37,9.4,9.4,0,0,0-2.36-6.52,7.63,7.63,0,0,0-5.93-2.62,8.48,8.48,0,0,0-3.3.64,7.89,7.89,0,0,0-4.48,4.7,10.68,10.68,0,0,0-.66,3.8,8.85,8.85,0,0,0,2.35,6.37,8.45,8.45,0,0,0,12,0Zm-2.85-25.24h-6.83l6.89-8.67,7.38,0Z" transform="translate(-61.67 -193.47)"/><path class="cls-2" d="M1196.6,556.75a13.39,13.39,0,0,1-5.32-5.31,17,17,0,0,1,0-15.74,13.65,13.65,0,0,1,5.37-5.34,15.94,15.94,0,0,1,7.84-1.91,17.37,17.37,0,0,1,6.86,1.41,13.83,13.83,0,0,1,5.44,4l-4.57,4a9.1,9.1,0,0,0-3.19-2.43,9.7,9.7,0,0,0-4.19-.88,9,9,0,0,0-4.54,1.12,7.89,7.89,0,0,0-3,3.17,10.66,10.66,0,0,0,0,9.39,7.84,7.84,0,0,0,3.07,3.18,9,9,0,0,0,4.53,1.13,10.46,10.46,0,0,0,1.86-.17,8.55,8.55,0,0,0,1.71-.45,10.26,10.26,0,0,0,1.5-.69,9.33,9.33,0,0,0,1.29-.86,9.13,9.13,0,0,0,1-1l4.63,4.1a14.75,14.75,0,0,1-5.32,3.72,18.09,18.09,0,0,1-7.33,1.44A15.63,15.63,0,0,1,1196.6,556.75Z" transform="translate(-61.67 -193.47)"/><path class="cls-2" d="M1223.61,523.22a4.42,4.42,0,0,1,0-6.3,4.44,4.44,0,0,1,3.22-1.3,4.37,4.37,0,0,1,3.18,1.32,4.32,4.32,0,0,1,.72,5.36,4.6,4.6,0,0,1-1.65,1.63,4.46,4.46,0,0,1-2.25.6A4.41,4.41,0,0,1,1223.61,523.22Zm-.17,5.67h6.7v29.27h-6.7Z" transform="translate(-61.67 -193.47)"/><path class="cls-2" d="M1239.75,514h6.71v44.18h-6.71Z" transform="translate(-61.67 -193.47)"/><path class="cls-2" d="M1256.15,557.33a4.25,4.25,0,0,1-1.34-3.15,4.44,4.44,0,0,1,2.26-3.89,4.57,4.57,0,0,1,2.31-.6,4.37,4.37,0,0,1,3.18,1.32,4.3,4.3,0,0,1,1.33,3.17,4.24,4.24,0,0,1-1.33,3.15,4.6,4.6,0,0,1-6.41,0Zm-.43-43.35h7.62l-1.23,30.73h-5.19Z" transform="translate(-61.67 -193.47)"/></svg>